<svg xmlns="http://www.w3.org/2000/svg" viewBox="0 0 1302.94 507.5"><defs><style>.cls-1{fill:#00468c;}</style></defs><g id="Layer_2" data-name="Layer 2"><g id="Ebene_1" data-name="Ebene 1"><polygon class="cls-1" points="125 5 264 89 110 252.5 3 137.5 125 5"/><polygon class="cls-1" points="104.5 265 104.5 507.5 0 324 0 148 104.5 265"/><polygon class="cls-1" points="560 83 278 83 138 0 320 0 560 83"/><path class="cls-1" d="M386,278.83q0,35.06-26.63,51.63-15.19,9.36-49.53,9.35H239.5V218h77.57c20.86,0,37.22,5.93,49.06,15.27Q386,248.69,386,278.83Zm-29-.47q0-37.61-39.71-37.61H267.54v76.4h36.21q25.71,0,37.38-6.55Q357,301.74,357,278.36Z"/><path class="cls-1" d="M548.84,339.81H425.47V218H548.83v20.77H453.51v27.15h55.6V286.7h-55.6v30.22h95.33Z"/><path class="cls-1" d="M720.3,268.76q0,23.6-27.1,23.6H617.51v47.45H589.94V218H693.2q27.1,0,27.1,23.61Zm-27.1-6.28V249.63q0-6.07-3.5-7.95c-1.72-1.08-4.75-1.63-9.11-1.63H617.51v32h63.08c4.36,0,7.39-.55,9.11-1.64Q693.2,268.56,693.2,262.48Z"/><path class="cls-1" d="M787.35,339.81h-28V218h28Z"/><path class="cls-1" d="M964.91,239.72H909.3V339.81h-28V239.72H825.9V218h139Z"/><path class="cls-1" d="M1126.8,339.81H1003.45V218H1126.8v20.77h-95.32v27.15h55.61V286.7h-55.61v30.22h95.32Z"/><path class="cls-1" d="M1302.49,311q0,17-6.42,22.9t-23.49,5.9h-71.95q-17.07,0-23.48-5.9t-6.42-22.9V246.8q0-17,6.42-22.9t23.48-5.9h71.95q21.5,0,26.64,10.15,3.26,5.91,3.27,30.22h-28V239.72h-75.69v77.2h75.69V296.61h28Z"/><path class="cls-1" d="M671.22,418.41h-7.14V371.86h-.17l-30,46.55H628l-30.15-46.55h-.24v46.55h-7.14V365.57h11.26L631.05,411h.23l29-45.38h11Z"/><path class="cls-1" d="M703.94,419a71.44,71.44,0,0,1-11.69-.78,15.4,15.4,0,0,1-7.11-2.83,10.34,10.34,0,0,1-3.49-5.75,39.5,39.5,0,0,1-.94-9.52v-.93a38,38,0,0,1,1-9.41,10.76,10.76,0,0,1,3.46-5.71,14.6,14.6,0,0,1,6.84-2.83,64.87,64.87,0,0,1,11.11-.78H705a63.58,63.58,0,0,1,11,.78,15.61,15.61,0,0,1,6.68,2.6,9.17,9.17,0,0,1,3.3,4.82,26.47,26.47,0,0,1,.9,7.5v4.51H687.4v.84a26.24,26.24,0,0,0,.62,6.34,6.43,6.43,0,0,0,2.41,3.77,11,11,0,0,0,5,1.79,64.06,64.06,0,0,0,8.63.46h1.48a70.86,70.86,0,0,0,7.81-.35,13.57,13.57,0,0,0,4.62-1.2,4.47,4.47,0,0,0,2.21-2.34,10.1,10.1,0,0,0,.59-3.72v-.62h6.29v.85a15.07,15.07,0,0,1-1.05,6.06,8.21,8.21,0,0,1-3.54,3.85,18.24,18.24,0,0,1-6.52,2,71.73,71.73,0,0,1-10,.58Zm16.48-22.92v-1.17a17.34,17.34,0,0,0-.51-4.58,5.06,5.06,0,0,0-2.13-2.94,11.69,11.69,0,0,0-4.7-1.56,56.25,56.25,0,0,0-8.28-.48h-1.09a66.49,66.49,0,0,0-8.43.43,11.22,11.22,0,0,0-4.85,1.61,5.63,5.63,0,0,0-2.29,3.25,21.88,21.88,0,0,0-.67,5.44Z"/><path class="cls-1" d="M782,418.41h-6.45v-6.06h-.16a10.55,10.55,0,0,1-2.29,3.22,9.83,9.83,0,0,1-3.53,2.06,22.48,22.48,0,0,1-5.25,1.09,73.43,73.43,0,0,1-7.34.31h-1.17a60.33,60.33,0,0,1-10.76-.78,13.3,13.3,0,0,1-6.49-2.83,10.56,10.56,0,0,1-3.18-5.75,42.82,42.82,0,0,1-.86-9.52v-1a41.9,41.9,0,0,1,.89-9.56,10.45,10.45,0,0,1,3.27-5.68,13.31,13.31,0,0,1,6.49-2.72,66.56,66.56,0,0,1,10.64-.69h1.4a68.13,68.13,0,0,1,7,.31,22.78,22.78,0,0,1,5.13,1.05,10.31,10.31,0,0,1,3.54,2,9.08,9.08,0,0,1,2.25,3.19h.16V365.57H782Zm-23.08-4.66a62.85,62.85,0,0,0,8.59-.47,9.78,9.78,0,0,0,5-1.94,7.19,7.19,0,0,0,2.33-4.12,34,34,0,0,0,.58-7.07v-1a34.2,34.2,0,0,0-.58-7.08,6.76,6.76,0,0,0-2.33-4,10,10,0,0,0-5-1.83,67.59,67.59,0,0,0-8.55-.43H757a58.74,58.74,0,0,0-8.32.47,9.6,9.6,0,0,0-4.78,1.86,6.93,6.93,0,0,0-2.22,4,36.48,36.48,0,0,0-.53,7v1a37,37,0,0,0,.53,7,7.19,7.19,0,0,0,2.22,4.12,9.56,9.56,0,0,0,4.82,1.94,53.88,53.88,0,0,0,8.28.51Z"/><path class="cls-1" d="M799.36,373h-6.68v-7.38h6.68Zm0,45.46h-6.68v-37.3h6.68Z"/><path class="cls-1" d="M831.7,419a71.36,71.36,0,0,1-11.69-.78,15.35,15.35,0,0,1-7.11-2.83,10.29,10.29,0,0,1-3.5-5.75,39.5,39.5,0,0,1-.94-9.52v-.93a37.43,37.43,0,0,1,1-9.41,10.76,10.76,0,0,1,3.46-5.71,14.56,14.56,0,0,1,6.83-2.83,65,65,0,0,1,11.12-.78h1.86a63.37,63.37,0,0,1,11,.78,15.56,15.56,0,0,1,6.68,2.6,9.18,9.18,0,0,1,3.31,4.82,26.51,26.51,0,0,1,.89,7.5v4.51H815.15v.84a26.24,26.24,0,0,0,.62,6.34,6.48,6.48,0,0,0,2.41,3.77,11.12,11.12,0,0,0,5.05,1.79,63.9,63.9,0,0,0,8.62.46h1.48a70.86,70.86,0,0,0,7.81-.35,13.71,13.71,0,0,0,4.63-1.2A4.51,4.51,0,0,0,848,410a10.12,10.12,0,0,0,.58-3.72v-.62h6.3v.85a15.25,15.25,0,0,1-1.05,6.06,8.21,8.21,0,0,1-3.54,3.85,18.23,18.23,0,0,1-6.53,2,71.73,71.73,0,0,1-10,.58Zm16.48-22.92v-1.17a17.77,17.77,0,0,0-.51-4.58,5,5,0,0,0-2.14-2.94,11.58,11.58,0,0,0-4.7-1.56,56.16,56.16,0,0,0-8.28-.48h-1.08a66.49,66.49,0,0,0-8.43.43,11.26,11.26,0,0,0-4.86,1.61,5.63,5.63,0,0,0-2.29,3.25,22.87,22.87,0,0,0-.67,5.44Z"/><path class="cls-1" d="M909.72,418.41H903V398.29a31.58,31.58,0,0,0-.51-6.26,6.32,6.32,0,0,0-2.09-3.77,9.5,9.5,0,0,0-4.47-1.83,45.57,45.57,0,0,0-7.62-.5h-1.16a44.3,44.3,0,0,0-7.46.54,13.14,13.14,0,0,0-5.17,1.94,8.24,8.24,0,0,0-3,3.81,16.28,16.28,0,0,0-1,6.07v20.12h-6.68v-37.3h6.68v7.23h.16a14.55,14.55,0,0,1,2.24-3.42,10.46,10.46,0,0,1,3.39-2.45,19.53,19.53,0,0,1,5.09-1.48,47.19,47.19,0,0,1,7.46-.5h1.24a55.6,55.6,0,0,1,9.64.69,13.18,13.18,0,0,1,6,2.53,9.45,9.45,0,0,1,3.07,5,31.79,31.79,0,0,1,.85,8.12Z"/><path class="cls-1" d="M941,419a117.35,117.35,0,0,1-11.74-.47,19.88,19.88,0,0,1-6.8-1.67,6.08,6.08,0,0,1-3.15-3.3,15.6,15.6,0,0,1-.77-5.36v-1.16h6.68v.46a10.9,10.9,0,0,0,.39,3.27,3.21,3.21,0,0,0,1.93,1.93,15.09,15.09,0,0,0,4.69,1c2.09.18,5,.27,8.65.27h3c3.1,0,5.56-.09,7.36-.27a13.92,13.92,0,0,0,4.19-.93,3.29,3.29,0,0,0,1.9-1.83,8.8,8.8,0,0,0,.43-2.95v-.62a7.25,7.25,0,0,0-.47-2.81,3.61,3.61,0,0,0-2.18-1.74,18.86,18.86,0,0,0-5-.93q-3.3-.27-9-.27c-4.62,0-8.33-.13-11.15-.4a19.47,19.47,0,0,1-6.57-1.51,5.81,5.81,0,0,1-3.1-3.15,14.35,14.35,0,0,1-.78-5.2v-.93a11.31,11.31,0,0,1,.88-4.78,6.82,6.82,0,0,1,3.12-3.07,17.51,17.51,0,0,1,6.06-1.63,82.82,82.82,0,0,1,9.67-.47h2.41q6.38,0,10.46.42a19,19,0,0,1,6.4,1.6,6.25,6.25,0,0,1,3.19,3.26,14.62,14.62,0,0,1,.86,5.44v.85h-6.46v-.54a8.33,8.33,0,0,0-.46-3,3.66,3.66,0,0,0-1.94-1.87,13.17,13.17,0,0,0-4.28-.93q-2.79-.22-7.46-.23H940q-4.66,0-7.43.23a15.15,15.15,0,0,0-4.19.82,3.17,3.17,0,0,0-1.87,1.56,6.35,6.35,0,0,0-.43,2.52v.7a6.37,6.37,0,0,0,.47,2.64,3.36,3.36,0,0,0,2.14,1.59,19.66,19.66,0,0,0,4.86.82c2.11.16,5,.23,8.54.23a107.68,107.68,0,0,1,11.15.47,21.33,21.33,0,0,1,6.76,1.63,6.74,6.74,0,0,1,3.39,3.18,12.35,12.35,0,0,1,.93,5.13v.86a14.65,14.65,0,0,1-.86,5.36,6.67,6.67,0,0,1-3.15,3.46,17.58,17.58,0,0,1-6.17,1.83,74.87,74.87,0,0,1-10,.54Z"/><path class="cls-1" d="M973.21,426.57c.57.05,1.22.08,1.95.08h1.93a27.35,27.35,0,0,0,3.85-.24,7.71,7.71,0,0,0,3.12-1.15,13.63,13.63,0,0,0,2.91-2.73,44,44,0,0,0,3.34-4.9H987.9l-20.52-36.52h7.23l17.8,31.78h.22L1009,381.11H1016l-17,32.41a108.13,108.13,0,0,1-5.71,9.94,25.91,25.91,0,0,1-4.7,5.52,11.4,11.4,0,0,1-4.66,2.41,25.88,25.88,0,0,1-5.6.54c-.77,0-1.62,0-2.53,0l-2.6-.11Z"/><path class="cls-1" d="M1041.75,419a117.49,117.49,0,0,1-11.74-.47,19.81,19.81,0,0,1-6.79-1.67,6.08,6.08,0,0,1-3.15-3.3,15.57,15.57,0,0,1-.78-5.36v-1.16H1026v.46a11.23,11.23,0,0,0,.39,3.27,3.26,3.26,0,0,0,1.94,1.93,15,15,0,0,0,4.69,1q3.13.27,8.64.27h3c3.11,0,5.56-.09,7.37-.27a14.07,14.07,0,0,0,4.19-.93,3.3,3.3,0,0,0,1.89-1.83,8.55,8.55,0,0,0,.43-2.95v-.62a7.27,7.27,0,0,0-.46-2.81,3.61,3.61,0,0,0-2.18-1.74,19,19,0,0,0-5-.93c-2.2-.18-5.2-.27-9-.27q-6.93,0-11.16-.4a19.47,19.47,0,0,1-6.57-1.51,5.81,5.81,0,0,1-3.1-3.15,14.57,14.57,0,0,1-.78-5.2v-.93a11.3,11.3,0,0,1,.89-4.78,6.75,6.75,0,0,1,3.11-3.07,17.57,17.57,0,0,1,6.06-1.63,83.06,83.06,0,0,1,9.67-.47h2.41c4.26,0,7.74.14,10.46.42a19.07,19.07,0,0,1,6.41,1.6,6.23,6.23,0,0,1,3.18,3.26,14.42,14.42,0,0,1,.86,5.44v.85h-6.45v-.54a8.31,8.31,0,0,0-.47-3,3.63,3.63,0,0,0-1.94-1.87,13.16,13.16,0,0,0-4.27-.93q-2.79-.22-7.47-.23h-2.09q-4.67,0-7.42.23a15.07,15.07,0,0,0-4.19.82,3.17,3.17,0,0,0-1.87,1.56,6.17,6.17,0,0,0-.43,2.52v.7a6.38,6.38,0,0,0,.46,2.64,3.35,3.35,0,0,0,2.15,1.59,19.57,19.57,0,0,0,4.85.82c2.12.16,5,.23,8.54.23a107.9,107.9,0,0,1,11.16.47,21.4,21.4,0,0,1,6.76,1.63,6.75,6.75,0,0,1,3.38,3.18A12.34,12.34,0,0,1,1065,407v.86a14.86,14.86,0,0,1-.86,5.36,6.75,6.75,0,0,1-3.15,3.46,17.71,17.71,0,0,1-6.18,1.83,74.66,74.66,0,0,1-10,.54Z"/><path class="cls-1" d="M1091.26,419a32.94,32.94,0,0,1-7.27-.66,8.79,8.79,0,0,1-4.51-2.41,9.53,9.53,0,0,1-2.29-4.84,42.9,42.9,0,0,1-.62-8.07V386h-7.39v-4.89h7.39v-9.72h6.68v9.72h26V386h-26v16.12a47.36,47.36,0,0,0,.32,6.17,7.29,7.29,0,0,0,1.27,3.52,4.52,4.52,0,0,0,2.76,1.59,25.93,25.93,0,0,0,4.74.35h1.4a27,27,0,0,0,5.17-.39,5.48,5.48,0,0,0,2.92-1.44,5.27,5.27,0,0,0,1.31-2.8,26.51,26.51,0,0,0,.31-4.55v-2.94h5.92v4a23.31,23.31,0,0,1-.79,6.57,8.11,8.11,0,0,1-2.64,4.11,11.11,11.11,0,0,1-5,2.14,42.07,42.07,0,0,1-7.89.62Z"/><path class="cls-1" d="M1139,419a71.44,71.44,0,0,1-11.69-.78,15.4,15.4,0,0,1-7.11-2.83,10.34,10.34,0,0,1-3.49-5.75,39.5,39.5,0,0,1-.94-9.52v-.93a37.49,37.49,0,0,1,1-9.41,10.76,10.76,0,0,1,3.46-5.71,14.55,14.55,0,0,1,6.84-2.83,64.87,64.87,0,0,1,11.11-.78H1140a63.58,63.58,0,0,1,11,.78,15.67,15.67,0,0,1,6.68,2.6,9.17,9.17,0,0,1,3.3,4.82,26.47,26.47,0,0,1,.9,7.5v4.51h-39.47v.84a26.24,26.24,0,0,0,.62,6.34,6.43,6.43,0,0,0,2.41,3.77,11,11,0,0,0,5,1.79,64.06,64.06,0,0,0,8.63.46h1.47a70.93,70.93,0,0,0,7.82-.35,13.57,13.57,0,0,0,4.62-1.2,4.47,4.47,0,0,0,2.21-2.34,10.1,10.1,0,0,0,.59-3.72v-.62h6.29v.85a15.07,15.07,0,0,1-1,6.06,8.21,8.21,0,0,1-3.54,3.85,18.24,18.24,0,0,1-6.52,2,71.93,71.93,0,0,1-10,.58Zm16.48-22.92v-1.17a17.34,17.34,0,0,0-.51-4.58,5.06,5.06,0,0,0-2.13-2.94,11.69,11.69,0,0,0-4.7-1.56,56.25,56.25,0,0,0-8.28-.48h-1.09a66.49,66.49,0,0,0-8.43.43,11.22,11.22,0,0,0-4.85,1.61,5.65,5.65,0,0,0-2.3,3.25,22.43,22.43,0,0,0-.66,5.44Z"/><path class="cls-1" d="M1247.84,418.41h-6.69V398.29a31.57,31.57,0,0,0-.5-6.3,7.34,7.34,0,0,0-1.86-3.77,7.18,7.18,0,0,0-3.81-1.82,35.16,35.16,0,0,0-6.34-.47h-1.24a29.2,29.2,0,0,0-6.52.62,10.49,10.49,0,0,0-4.51,2.1,8.71,8.71,0,0,0-2.65,3.92,19.31,19.31,0,0,0-.85,6.18v19.66h-6.69V398.2a29.64,29.64,0,0,0-.54-6.37,6.45,6.45,0,0,0-5.74-5.47,36.29,36.29,0,0,0-6.22-.43h-1.09a32.12,32.12,0,0,0-6.57.58,11.4,11.4,0,0,0-4.59,2,8.52,8.52,0,0,0-2.72,3.77,17.13,17.13,0,0,0-.89,5.94v20.21h-6.68v-37.3h6.68v7.23h.16a12.14,12.14,0,0,1,2.06-3.15,11.8,11.8,0,0,1,3.18-2.49,17.27,17.27,0,0,1,4.63-1.63,31,31,0,0,1,6.45-.58h1.09a41.43,41.43,0,0,1,7.34.54,15,15,0,0,1,4.78,1.63,7.66,7.66,0,0,1,2.83,2.76,16.35,16.35,0,0,1,1.6,4h.07a14.19,14.19,0,0,1,2-3.43,11.9,11.9,0,0,1,3.22-2.84,18,18,0,0,1,4.9-1.93,29,29,0,0,1,7-.74h1.25a44.22,44.22,0,0,1,8.59.69,11.1,11.1,0,0,1,5.35,2.53,9.64,9.64,0,0,1,2.76,4.94,33.32,33.32,0,0,1,.78,7.92Z"/><path class="cls-1" d="M1279.78,419a71.49,71.49,0,0,1-11.7-.78,15.31,15.31,0,0,1-7.1-2.83,10.29,10.29,0,0,1-3.5-5.75,39.5,39.5,0,0,1-.94-9.52v-.93a37.43,37.43,0,0,1,1-9.41,10.64,10.64,0,0,1,3.46-5.71,14.56,14.56,0,0,1,6.83-2.83,65,65,0,0,1,11.12-.78h1.86a63.45,63.45,0,0,1,11,.78,15.56,15.56,0,0,1,6.68,2.6,9.18,9.18,0,0,1,3.31,4.82,26.51,26.51,0,0,1,.89,7.5v4.51h-39.47v.84a26.24,26.24,0,0,0,.62,6.34,6.43,6.43,0,0,0,2.41,3.77,11.07,11.07,0,0,0,5,1.79,63.9,63.9,0,0,0,8.62.46h1.48a70.86,70.86,0,0,0,7.81-.35,13.71,13.71,0,0,0,4.63-1.2,4.55,4.55,0,0,0,2.21-2.34,10.12,10.12,0,0,0,.58-3.72v-.62h6.3v.85a15.25,15.25,0,0,1-1,6.06,8.26,8.26,0,0,1-3.54,3.85,18.36,18.36,0,0,1-6.53,2,71.73,71.73,0,0,1-10,.58Zm16.48-22.92v-1.17a17.77,17.77,0,0,0-.51-4.58,5,5,0,0,0-2.14-2.94,11.69,11.69,0,0,0-4.7-1.56,56.16,56.16,0,0,0-8.28-.48h-1.08a66.56,66.56,0,0,0-8.44.43,11.26,11.26,0,0,0-4.85,1.61,5.63,5.63,0,0,0-2.29,3.25,22.87,22.87,0,0,0-.67,5.44Z"/></g></g></svg>